<svg width="250" height="86" viewBox="0 0 250 86" fill="none" xmlns="http://www.w3.org/2000/svg">
<path d="M102.008 39.7201V27.2494C102.008 25.5403 101.674 23.9326 101.008 22.4262C100.371 20.8909 99.487 19.5584 98.357 18.4287C97.2271 17.2989 95.8943 16.4154 94.3587 15.7781C92.8521 15.1118 91.2442 14.7787 89.5347 14.7787C87.8253 14.7787 86.2028 15.1118 84.6673 15.7781C83.1607 16.4154 81.8424 17.2989 80.7125 18.4287C79.5825 19.5584 78.6844 20.8909 78.018 22.4262C77.3806 23.9326 77.0619 25.5403 77.0619 27.2494V39.7201H102.008ZM114.48 64.618H102.008V52.1473H77.0619V64.618H64.6324V27.2494C64.6324 23.8022 65.2843 20.5723 66.5881 17.5596C67.8919 14.518 69.6593 11.8674 71.8902 9.60792C74.1501 7.34842 76.7866 5.56688 79.7998 4.26332C82.842 2.95976 86.087 2.30798 89.5347 2.30798C92.9825 2.30798 96.213 2.95976 99.2262 4.26332C102.268 5.56688 104.919 7.34842 107.179 9.60792C109.439 11.8674 111.221 14.518 112.525 17.5596C113.829 20.5723 114.48 23.8022 114.48 27.2494V64.618Z" fill="white"/>
<path d="M249.486 64.6181H237.188V20.2477C237.188 19.3811 237.016 18.5723 236.672 17.8212C236.357 17.0702 235.912 16.4202 235.339 15.8714C234.794 15.2936 234.149 14.8459 233.404 14.5281C232.659 14.2104 231.856 14.0515 230.996 14.0515C230.136 14.0515 229.333 14.2104 228.588 14.5281C227.843 14.8459 227.183 15.2936 226.61 15.8714C226.065 16.4202 225.635 17.0702 225.32 17.8212C225.005 18.5723 224.847 19.3811 224.847 20.2477V64.6181H212.506V20.2477C212.506 19.3811 212.349 18.5723 212.033 17.8212C211.718 17.0702 211.274 16.4202 210.7 15.8714C210.156 15.2936 209.511 14.8459 208.765 14.5281C208.02 14.2104 207.217 14.0515 206.357 14.0515C205.498 14.0515 204.695 14.2104 203.95 14.5281C203.204 14.8459 202.545 15.2936 201.972 15.8714C201.427 16.4202 200.997 17.0702 200.682 17.8212C200.366 18.5723 200.209 19.3811 200.209 20.2477V64.6181H187.868V20.2477C187.868 17.6768 188.341 15.2647 189.287 13.0116C190.261 10.7295 191.58 8.75074 193.243 7.0753C194.934 5.37098 196.898 4.04217 199.134 3.0889C201.398 2.10675 203.806 1.61566 206.357 1.61566C208.651 1.61566 210.858 2.03453 212.979 2.87225C215.101 3.68108 217.007 4.86546 218.698 6.42536C220.39 4.86546 222.281 3.68108 224.374 2.87225C226.495 2.03453 228.703 1.61566 230.996 1.61566C233.547 1.61566 235.941 2.10675 238.177 3.0889C240.441 4.04217 242.405 5.37098 244.068 7.0753C245.759 8.75074 247.078 10.7295 248.024 13.0116C248.998 15.2647 249.486 17.6768 249.486 20.2477V64.6181Z" fill="white"/>
<path d="M177.483 57.741C174.605 60.1781 171.397 62.0561 167.857 63.375C164.318 64.6653 160.634 65.3104 156.807 65.3104C153.872 65.3104 151.037 64.9233 148.304 64.1492C145.599 63.4037 143.066 62.3429 140.707 60.9666C138.347 59.5617 136.189 57.8987 134.232 55.9777C132.275 54.028 130.606 51.8776 129.225 49.5265C127.844 47.1467 126.765 44.5949 125.988 41.8711C125.24 39.1473 124.865 36.3231 124.865 33.3985C124.865 30.474 125.24 27.6641 125.988 24.969C126.765 22.2738 127.844 19.7507 129.225 17.3996C130.606 15.0198 132.275 12.8694 134.232 10.9484C136.189 8.9987 138.347 7.33573 140.707 5.95947C143.066 4.58322 145.599 3.52234 148.304 2.77687C151.037 2.00273 153.872 1.61566 156.807 1.61566C160.634 1.61566 164.318 2.27512 167.857 3.59403C171.397 4.88426 174.605 6.74796 177.483 9.18507L171.008 19.937C169.138 18.0447 166.98 16.5681 164.534 15.5072C162.088 14.4177 159.512 13.8729 156.807 13.8729C154.102 13.8729 151.555 14.389 149.167 15.4212C146.807 16.4534 144.735 17.8583 142.951 19.636C141.167 21.385 139.757 23.4494 138.721 25.8291C137.685 28.1802 137.167 30.7034 137.167 33.3985C137.167 36.1224 137.685 38.6742 138.721 41.0539C139.757 43.4337 141.167 45.5124 142.951 47.2901C144.735 49.0677 146.807 50.4727 149.167 51.5049C151.555 52.537 154.102 53.0532 156.807 53.0532C158.361 53.0532 159.872 52.8668 161.339 52.494C162.807 52.1213 164.203 51.6052 165.526 50.9458V33.3985H177.483V57.741Z" fill="white"/>
<path d="M54.2474 57.5926C51.3414 60.0785 48.0868 61.9863 44.4834 63.3159C40.88 64.6456 37.1459 65.3104 33.2809 65.3104C30.3169 65.3104 27.4545 64.9202 24.6939 64.1397C21.9623 63.3882 19.3905 62.3187 16.9785 60.9312C14.5957 59.5149 12.4162 57.8239 10.4402 55.8583C8.4641 53.8927 6.76412 51.7248 5.3402 49.3546C3.94534 46.9554 2.85561 44.3973 2.071 41.6801C1.31546 38.9341 0.937683 36.0869 0.937683 33.1386C0.937683 30.1902 1.31546 27.343 2.071 24.597C2.85561 21.8509 3.94534 19.2928 5.3402 16.9226C6.76412 14.5234 8.4641 12.341 10.4402 10.3754C12.4162 8.40987 14.5957 6.73335 16.9785 5.34589C19.3905 3.92952 21.9623 2.84556 24.6939 2.09401C27.4545 1.31356 30.3169 0.92334 33.2809 0.92334C37.1459 0.92334 40.88 1.58817 44.4834 2.91782C48.0868 4.21857 51.3414 6.12634 54.2474 8.64112L47.6218 19.4807C45.7911 17.5151 43.6261 16.012 41.127 14.9714C38.6279 13.9019 36.0125 13.3672 33.2809 13.3672C30.5203 13.3672 27.934 13.8875 25.5221 14.9281C23.1101 15.9687 21.0033 17.385 19.2016 19.1772C17.3999 20.9404 15.976 23.0361 14.9298 25.4641C13.8837 27.8633 13.3606 30.4214 13.3606 33.1386C13.3606 35.8557 13.8837 38.4138 14.9298 40.813C15.976 43.1832 17.3999 45.2644 19.2016 47.0566C21.0033 48.8487 23.1101 50.2651 25.5221 51.3057C27.934 52.3463 30.5203 52.8666 33.2809 52.8666C36.0125 52.8666 38.6279 52.3463 41.127 51.3057C43.6261 50.2362 45.7911 48.7186 47.6218 46.7531L54.2474 57.5926Z" fill="white"/>
<path d="M1.20367 79.5795L242.834 74.3599C245.87 74.2943 248.367 76.7376 248.367 79.7746C248.367 82.8149 245.865 85.2596 242.825 85.189L1.20367 79.5795Z" fill="white"/>
</svg>
